# xmcd
#
# Track frame offsets: 
#        150
#        9897
#        24542
#        33094
#        48292
#        66554
#        83466
#        92894
#        109297
#        125612
#        143381
#        167034
#        175933
#        191839
#        202480
#        208512
#        219336
#        236732
#        254930
#        281500
#
# Disc length: 4075 seconds
#
# Revision: 1
# Processed by: cddbd v1.5.2PL0 Copyright (c) Steve Scherf et al.
# Submitted via: ExactAudioCopy v0.99pb4
#
DISCID=260fe914
DTITLE=Various Artist - 100 Grootste Kerst Hits ... allertijden, De [CD 5)
DYEAR=2006
DGENRE=Christmas
TTITLE0=Presley, Elvis - Blue Christmas
TTITLE1=Parton, Dolly - I'll Be Home For Christmas
TTITLE2=Whittaker, Roger - We Wish You A Merry Christmas
TTITLE3=Mathis, Johnny - Do You Hear What I Hear?
TTITLE4=Kelly, R. - World Christmas
TTITLE5=TLC - Sleigh Ride
TTITLE6=O'Jays, The - Christmas Ain't Christmas Anymore
TTITLE7=Vinton, Bobby - O Holy Night
TTITLE8=Vandross, Luther - Please Come Home For Christmas
TTITLE9=New Kids On The Block - This One's For The Children
TTITLE10=Cover Girls - New York City Christmas
TTITLE11=Faith, Percy - Happy Holiday
TTITLE12=Carpenter, Mary Chapin - Bells Are Ringing
TTITLE13=Como, Pery - Frosty The Snowman
TTITLE14=Robbins, Marty - Christmas Time Is Here Again
TTITLE15=Humperdinck, Engelbert - God Rest Ye Merry Gentlemen
TTITLE16=Modern Talking - It's Christmas
TTITLE17=Charlie Daniels Band - My Christmas Love Song To You
TTITLE18=Manhattan Transfer - It Came Upon The Midnight Clear
TTITLE19=Santana - Posada (Pilgrimage To Bethlehem)
EXTD=YEAR: 2006
EXTT0=
EXTT1=
EXTT2=
EXTT3=
EXTT4=
EXTT5=
EXTT6=
EXTT7=
EXTT8=
EXTT9=
EXTT10=
EXTT11=
EXTT12=
EXTT13=
EXTT14=
EXTT15=
EXTT16=
EXTT17=
EXTT18=
EXTT19=
PLAYORDER=
